<?xml version="1.0" encoding="UTF-8"?>
<svg version="1.1" xmlns="http://www.w3.org/2000/svg" width="48" height="48">
<path d="M0 0 C-0.33 0.825 -0.66 1.65 -1 2.5 C-2.43832858 7.53415003 -2.83629355 11.78628177 -0.9375 16.8125 C1.65506088 19.73958487 4.21009678 21.23782389 8 22 C11.38764742 21.94567912 14.66067985 21.55767318 18 21 C18 24.36513506 17.53942963 26.40493414 15.2578125 28.921875 C10.05108961 33.53735829 6.40659099 35.38720067 -0.58984375 35.2734375 C-6.14605428 34.64307326 -10.42814123 32.13635178 -13.9375 27.8125 C-17.26961077 22.55541984 -17.3921253 17.31353925 -16.375 11.3125 C-14.22465699 6.1321282 -11.50044809 2.45726539 -6.375 0.0625 C-3 -1 -3 -1 0 0 Z " fill="#000000" transform="translate(24,6)"/>
</svg>
