<?xml version="1.0" encoding="UTF-8"?>
<svg version="1.1" xmlns="http://www.w3.org/2000/svg" width="78" height="78">
<path d="M0 0 C3.27593689 2.5452745 5.32676302 4.93301158 6.15625 8.98828125 C6.29617873 13.70213031 5.8558839 17.62940702 2.90625 21.42578125 C-0.4146601 24.52026566 -2.37273805 25.91493025 -6.94921875 26.05078125 C-12.83256183 25.73542618 -15.83183236 24.29375384 -19.84375 19.98828125 C-22.28732377 16.16355708 -22.0671983 12.56923986 -21.44921875 8.20703125 C-20.21983073 3.70191903 -17.51674716 1.05714055 -13.59375 -1.44921875 C-8.91871806 -2.40547528 -4.26301752 -2.33924055 0 0 Z " fill="#000000" transform="translate(46.84375,27.01171875)"/>
<path d="M0 0 C1.67542976 0.28604898 3.34385343 0.61781233 5 1 C5 3.31 5 5.62 5 8 C3.34385343 8.38218767 1.67542976 8.71395102 0 9 C-1 8 -1 8 -1.125 4.5 C-1 1 -1 1 0 0 Z " fill="#000000" transform="translate(37,57)"/>
<path d="M0 0 C4.75 0.75 4.75 0.75 7 3 C6.625 5.625 6.625 5.625 6 8 C1.25 7.25 1.25 7.25 -1 5 C-0.625 2.375 -0.625 2.375 0 0 Z " fill="#000000" transform="translate(52,51)"/>
<path d="M0 0 C2.625 0.375 2.625 0.375 5 1 C4.25 5.75 4.25 5.75 2 8 C-0.625 7.625 -0.625 7.625 -3 7 C-2.25 2.25 -2.25 2.25 0 0 Z " fill="#000000" transform="translate(22,51)"/>
<path d="M0 0 C1.134375 0.020625 2.26875 0.04125 3.4375 0.0625 C3.81968767 1.71864657 4.15145102 3.38707024 4.4375 5.0625 C3.4375 6.0625 3.4375 6.0625 -0.125 6.125 C-1.259375 6.104375 -2.39375 6.08375 -3.5625 6.0625 C-3.94468767 4.40635343 -4.27645102 2.73792976 -4.5625 1.0625 C-3.5625 0.0625 -3.5625 0.0625 0 0 Z " fill="#000000" transform="translate(61.5625,35.9375)"/>
<path d="M0 0 C1.134375 0.020625 2.26875 0.04125 3.4375 0.0625 C3.81968767 1.71864657 4.15145102 3.38707024 4.4375 5.0625 C3.4375 6.0625 3.4375 6.0625 -0.125 6.125 C-1.259375 6.104375 -2.39375 6.08375 -3.5625 6.0625 C-3.94468767 4.40635343 -4.27645102 2.73792976 -4.5625 1.0625 C-3.5625 0.0625 -3.5625 0.0625 0 0 Z " fill="#000000" transform="translate(16.5625,35.9375)"/>
<path d="M0 0 C2.625 0.375 2.625 0.375 5 1 C4.25 5.75 4.25 5.75 2 8 C-0.625 7.625 -0.625 7.625 -3 7 C-2.25 2.25 -2.25 2.25 0 0 Z " fill="#000000" transform="translate(54,19)"/>
<path d="M0 0 C4.75 0.75 4.75 0.75 7 3 C6.625 5.625 6.625 5.625 6 8 C1.25 7.25 1.25 7.25 -1 5 C-0.625 2.375 -0.625 2.375 0 0 Z " fill="#000000" transform="translate(20,19)"/>
<path d="M0 0 C1.67542976 0.28604898 3.34385343 0.61781233 5 1 C5 3.31 5 5.62 5 8 C3.34385343 8.38218767 1.67542976 8.71395102 0 9 C-1 8 -1 8 -1.125 4.5 C-1 1 -1 1 0 0 Z " fill="#000000" transform="translate(37,12)"/>
</svg>
